<svg xmlns="http://www.w3.org/2000/svg" width="240" height="250" viewBox="0 0 240 250" fill="none" role="img" aria-label="yap">
  
  <g>
    
    <g fill="#23c98c">
      <rect x="110" y="4" width="20" height="18" rx="5" transform="rotate(0 120 70)"></rect>
      <rect x="110" y="4" width="20" height="18" rx="5" transform="rotate(45 120 70)"></rect>
      <rect x="110" y="4" width="20" height="18" rx="5" transform="rotate(90 120 70)"></rect>
      <rect x="110" y="4" width="20" height="18" rx="5" transform="rotate(135 120 70)"></rect>
      <rect x="110" y="4" width="20" height="18" rx="5" transform="rotate(180 120 70)"></rect>
      <rect x="110" y="4" width="20" height="18" rx="5" transform="rotate(225 120 70)"></rect>
      <rect x="110" y="4" width="20" height="18" rx="5" transform="rotate(270 120 70)"></rect>
      <rect x="110" y="4" width="20" height="18" rx="5" transform="rotate(315 120 70)"></rect>
    </g>
    
    <circle cx="120" cy="70" r="44" stroke="#23c98c" stroke-width="15" fill="none"></circle>
    
    <polygon points="120,47 139.9,58.5 120,70 100.1,58.5" fill="#3a4a54"></polygon>
    <polygon points="100.1,58.5 120,70 120,93 100.1,81.5" fill="#222e36"></polygon>
    <polygon points="120,70 139.9,58.5 139.9,81.5 120,93" fill="#2d3a42"></polygon>
  </g>

  
  <g stroke="#2c3940" stroke-width="14" stroke-linecap="round" stroke-linejoin="round" fill="none">
    
    <path d="M24 150 L48 196"></path>
    <path d="M72 150 L48 197 L33 244"></path>
    
    <path d="M136 150 L136 210"></path>
    <path d="M136 166 C 114 158 92 165 92 184 C 92 205 114 212 136 204"></path>
    
    <path d="M166 150 L166 245"></path>
    <path d="M166 160 C 189 153 212 161 212 182 C 212 203 189 210 166 202"></path>
  </g>
</svg>